<?xml version="1.0" standalone="no"?>
<!DOCTYPE svg PUBLIC "-//W3C//DTD SVG 20010904//EN"
 "http://www.w3.org/TR/2001/REC-SVG-20010904/DTD/svg10.dtd">
<svg version="1.0" xmlns="http://www.w3.org/2000/svg"
 width="415.000000pt" height="415.000000pt" viewBox="0 0 415.000000 415.000000"
 preserveAspectRatio="xMidYMid meet">
<metadata>
Created by potrace 1.14, written by Peter Selinger 2001-2017
</metadata>
<g transform="translate(0.000000,415.000000) scale(0.100000,-0.100000)"
fill="#000000" stroke="none">
<path d="M276 2758 c-5 -15 -34 -152 -42 -195 -3 -15 -23 -109 -44 -208 -21
-99 -41 -192 -44 -207 -3 -16 -9 -40 -12 -55 -12 -64 -105 -503 -119 -563 -8
-36 -11 -68 -7 -71 8 -8 222 -42 227 -37 3 3 44 186 51 228 2 14 7 36 11 50 8
32 8 34 22 105 7 33 18 87 26 120 8 33 17 74 20 90 2 17 16 84 31 150 14 66
27 131 30 145 2 14 7 36 10 50 3 14 8 34 10 45 2 11 15 72 29 135 14 63 29
134 32 158 5 41 5 42 -26 43 -17 1 -34 2 -38 3 -5 2 -35 6 -68 10 -33 4 -68
10 -78 13 -9 2 -19 -2 -21 -9z"/>
<path d="M654 2746 c-5 -14 -41 -178 -59 -271 -8 -38 -35 -166 -59 -283 -25
-117 -48 -222 -50 -235 -3 -12 -27 -130 -56 -262 -28 -132 -52 -246 -53 -254
-2 -14 76 -32 195 -45 44 -5 37 -23 83 199 89 428 108 517 131 623 13 63 26
128 29 145 3 18 10 48 15 67 7 29 27 121 46 215 2 11 6 32 9 47 7 30 1 33 -85
43 -30 4 -74 10 -98 15 -30 5 -45 4 -48 -4z"/>
<path d="M1143 2716 c-11 -17 -8 -1276 2 -1279 9 -3 203 -1 223 2 5 0 9 184
10 407 0 223 2 408 4 410 3 2 14 -13 25 -34 11 -20 59 -104 107 -186 48 -81
92 -159 98 -172 11 -23 16 -24 104 -24 l93 0 43 68 c24 37 79 126 123 197 43
72 83 136 89 142 9 10 12 -94 11 -400 l0 -412 120 -3 120 -3 2 646 2 645 -119
0 -119 0 -36 -59 c-19 -33 -100 -163 -178 -289 l-143 -230 -46 77 c-25 42 -55
92 -66 111 -39 69 -224 385 -228 389 -8 9 -236 6 -241 -3z"/>
<path d="M2393 2712 c-22 -3 -23 -8 -23 -88 l0 -84 330 0 330 0 -2 -172 -3
-173 -325 0 -325 0 -3 -373 -2 -372 27 -1 c93 -3 774 -1 777 2 7 7 8 32 7 101
l-1 68 -302 2 -303 3 0 198 0 197 55 1 c30 0 166 1 303 1 l247 0 0 347 0 346
-382 0 c-211 0 -393 -1 -405 -3z"/>
<path d="M3297 2712 c-16 -3 -17 -52 -17 -633 0 -346 3 -629 8 -630 10 -1 814
-1 835 0 16 1 17 26 17 374 l0 372 -352 0 -353 0 -1 173 0 172 353 0 353 0 0
85 c0 47 -3 85 -7 86 -26 2 -823 3 -836 1z m636 -692 c4 0 7 -90 7 -200 l-2
-200 -252 0 -252 0 0 200 0 199 25 3 c20 2 432 1 474 -2z"/>
</g>
</svg>
