<svg width="566" height="388" viewBox="0 0 566 388" fill="none" xmlns="http://www.w3.org/2000/svg">
<path d="M110.551 234.691L1.91097 195.893L10.8571 170.843C15.3772 158.186 20.814 148.234 27.1675 140.989C33.5838 133.568 40.5777 128.137 48.1492 124.697C55.7835 121.08 63.5372 118.795 71.4101 117.84L92.5427 115.278C100.654 114.211 107.51 112.497 113.11 110.136C118.949 107.662 122.998 103.261 125.259 96.9326L126.954 92.1862C129.276 85.6819 128.812 79.7677 125.559 74.4438C122.546 69.0069 116.117 64.5306 106.272 61.0149C100.295 58.8804 93.9166 57.5935 87.1361 57.1541C80.5313 56.7775 72.357 56.6333 62.6131 56.7214L62.5561 26.0771C73.97 25.1979 84.034 25.3233 92.7483 26.4532C101.701 27.4701 110.045 29.3597 117.78 32.122C132.019 37.2072 142.542 43.5418 149.347 51.1258C156.329 58.7727 160.285 67.1227 161.214 76.176C162.382 85.1162 161.333 94.157 158.069 103.298L156.374 108.045C152.984 117.537 148.162 124.933 141.909 130.232C135.832 135.594 128.901 139.462 121.116 141.835C113.331 144.208 105.207 145.866 96.7435 146.808L75.6108 149.37C67.9765 150.211 61.5727 152.88 56.3995 157.375C51.402 161.933 47.158 168.544 43.6675 177.208L121.192 204.894L110.551 234.691ZM286.89 237.012C283.06 247.736 277.234 256.557 269.411 263.475C261.652 270.218 252.498 274.482 241.95 276.265C231.579 278.111 220.24 276.837 207.935 272.442C188.422 265.473 175.57 253.451 169.379 236.374C163.188 219.297 164.205 199.244 172.429 176.215L185.707 139.035C194.496 114.424 206.858 98.1255 222.792 90.1392C238.726 82.153 257.241 81.9266 278.336 89.4602C285.719 92.0969 293.052 95.7068 300.335 100.29C307.794 104.936 315.541 111.27 323.578 119.294L302.54 142.404C295.947 135.888 289.914 130.859 284.439 127.318C279.027 123.601 273.772 120.833 268.674 119.012C257.599 115.057 247.441 115.195 238.199 119.427C229.196 123.546 221.807 133.692 216.031 149.865L212.641 159.357C220.74 156.105 228.513 154.322 235.959 154.008C243.581 153.757 250.644 154.792 257.148 157.115C267.696 160.882 275.989 166.52 282.029 174.029C288.069 181.537 291.692 190.264 292.897 200.209C294.103 210.154 292.728 220.663 288.773 231.738L286.89 237.012ZM202.753 187.045C197.354 202.163 196.149 214.418 199.138 223.811C202.126 233.203 208.719 239.72 218.915 243.361C227.704 246.5 235.351 246.456 241.856 243.228C248.423 239.826 253.15 234.081 256.038 225.994L257.921 220.721C260.872 212.458 261.06 204.993 258.486 198.326C255.912 191.658 250.494 186.849 242.231 183.899C229.75 179.441 216.716 180.138 203.13 185.99L202.753 187.045ZM388.029 328.73C382.705 329.207 376.835 328.994 370.418 328.09C363.939 327.362 357.623 325.899 351.47 323.702C341.274 320.061 333.853 315.032 329.207 308.615C324.561 302.199 322.182 294.709 322.068 286.146C322.131 277.645 323.889 268.56 327.342 258.891L348.812 198.77L327.19 191.048L336.607 164.679L358.229 172.401L370.66 137.594L400.984 148.424L388.554 183.231L430.216 198.11L420.8 224.479L379.137 209.6L357.666 269.721C354.778 277.807 354.263 283.966 356.122 288.198C358.219 292.316 362.168 295.412 367.969 297.483C370.782 298.488 373.864 299.291 377.217 299.894C380.808 300.384 384.908 300.559 389.516 300.421L388.029 328.73ZM520.087 259.044C515.692 257.475 510.305 256.74 503.927 256.841C497.548 256.942 489.393 258.687 479.46 262.078L446.407 354.633L416.083 343.803L485.768 148.673L516.092 159.502L488.218 237.554C498.753 233.586 508.07 231.364 516.169 230.886C524.268 230.409 532.009 231.489 539.392 234.126C552.225 238.708 560.506 246.324 564.236 256.972C568.028 267.444 567.288 280.063 562.014 294.83L529.996 384.484L499.672 373.655L530.371 287.692C535.645 272.925 532.217 263.376 520.087 259.044Z" fill="#EFEFEF" fill-opacity="0.5"/>
</svg>
