<svg width="374" height="168" viewBox="0 0 374 168" fill="none" xmlns="http://www.w3.org/2000/svg">
<path d="M140.28 137H82.6V123.7C82.6 116.98 83.4867 111.38 85.26 106.9C87.0333 102.327 89.4133 98.5933 92.4 95.7C95.3867 92.7133 98.6533 90.3333 102.2 88.56L111.72 83.8C115.36 81.9333 118.3 79.9733 120.54 77.92C122.873 75.7733 124.04 73.02 124.04 69.66V67.14C124.04 63.6867 122.827 60.98 120.4 59.02C118.067 56.9667 114.287 55.94 109.06 55.94C105.887 55.94 102.667 56.4067 99.4 57.34C96.2267 58.2733 92.3533 59.58 87.78 61.26L82.6 46.84C87.8267 44.5067 92.5867 42.8733 96.88 41.94C101.267 40.9133 105.513 40.4 109.62 40.4C117.18 40.4 123.2 41.6133 127.68 44.04C132.253 46.4667 135.52 49.7333 137.48 53.84C139.533 57.8533 140.56 62.2867 140.56 67.14V69.66C140.56 74.7 139.533 78.9933 137.48 82.54C135.52 86.0867 132.907 89.0733 129.64 91.5C126.373 93.9267 122.827 96.0733 119 97.94L109.48 102.7C106.027 104.38 103.46 106.713 101.78 109.7C100.193 112.687 99.3067 116.513 99.12 121.18H140.28V137ZM223.704 108.44C223.704 114.133 222.444 119.267 219.924 123.84C217.404 128.32 213.81 131.867 209.144 134.48C204.57 137.093 199.017 138.4 192.484 138.4C182.124 138.4 174.05 134.9 168.264 127.9C162.477 120.9 159.584 111.287 159.584 99.06V79.32C159.584 66.2533 162.664 56.5 168.824 50.06C174.984 43.62 183.664 40.4 194.864 40.4C198.784 40.4 202.844 40.8667 207.044 41.8C211.337 42.7333 216.05 44.4133 221.184 46.84L215.164 61.26C210.964 59.3 207.277 57.9467 204.104 57.2C200.93 56.36 197.99 55.94 195.284 55.94C189.404 55.94 184.644 57.7133 181.004 61.26C177.457 64.7133 175.684 70.7333 175.684 79.32V84.36C178.95 81.4667 182.31 79.32 185.764 77.92C189.31 76.52 192.81 75.82 196.264 75.82C201.864 75.82 206.717 77.08 210.824 79.6C214.93 82.12 218.104 85.62 220.344 90.1C222.584 94.58 223.704 99.76 223.704 105.64V108.44ZM175.684 99.06C175.684 107.087 177.177 113.06 180.164 116.98C183.15 120.9 187.35 122.86 192.764 122.86C197.43 122.86 201.024 121.553 203.544 118.94C206.064 116.233 207.324 112.733 207.324 108.44V105.64C207.324 101.253 206.157 97.7067 203.824 95C201.49 92.2933 198.13 90.94 193.744 90.94C187.117 90.94 181.097 93.46 175.684 98.5V99.06ZM286.751 134.62C284.324 135.74 281.524 136.627 278.351 137.28C275.177 138.027 271.957 138.4 268.691 138.4C263.277 138.4 258.937 137.28 255.671 135.04C252.404 132.8 250.024 129.673 248.531 125.66C247.131 121.647 246.431 117.073 246.431 111.94V80.02H234.951V66.02H246.431V47.54H262.531V66.02H284.651V80.02H262.531V111.94C262.531 116.233 263.324 119.22 264.911 120.9C266.591 122.487 268.971 123.28 272.051 123.28C273.544 123.28 275.131 123.14 276.811 122.86C278.584 122.487 280.544 121.88 282.691 121.04L286.751 134.62ZM337.215 79.6C334.882 79.6 332.222 80.16 329.235 81.28C326.248 82.4 322.702 84.5933 318.595 87.86V137H302.495V33.4H318.595V74.84C322.888 71.2 326.902 68.5867 330.635 67C334.368 65.4133 338.195 64.62 342.115 64.62C348.928 64.62 354.108 66.8133 357.655 71.2C361.202 75.4933 362.975 81.56 362.975 89.4V137H346.875V91.36C346.875 83.52 343.655 79.6 337.215 79.6Z" fill="#EFEFEF" fill-opacity="0.75"/>
<path d="M12.4 119.68L16.96 130.84L21.496 119.68H24.64V136H21.88V129.76L22.24 124.048L18.184 134.08H15.616L11.656 124.024L12.016 129.76V136H9.256V119.68H12.4ZM42.1144 136H39.2344V119.68H42.1144V136ZM67.4253 119.68L62.4332 129.448V136H59.5533V129.496L54.5132 119.68H57.5853L61.1133 126.64L64.4493 119.68H67.4253ZM86.9496 136L85.9416 132.808H80.3496L79.3416 136H76.4856L81.9336 119.68H84.4776L89.9496 136H86.9496ZM81.9096 127.816L81.1656 130.168H85.1016L84.3576 127.816L83.1576 123.688L81.9096 127.816ZM111.852 133.24V136H101.412V133.48L108.228 122.44H101.652V119.68H111.612V122.2L104.796 133.24H111.852ZM133.735 136L132.727 132.808H127.135L126.127 136H123.271L128.719 119.68H131.263L136.735 136H133.735ZM128.695 127.816L127.951 130.168H131.887L131.143 127.816L129.943 123.688L128.695 127.816ZM158.205 136L154.125 128.872C153.853 129.176 153.573 129.48 153.285 129.784C153.013 130.088 152.725 130.4 152.421 130.72V136H149.541V119.68H152.421V127.432C153.637 126.04 154.677 124.72 155.541 123.472C156.405 122.208 157.149 120.944 157.773 119.68H160.917C160.229 121.056 159.493 122.36 158.709 123.592C157.941 124.808 157.125 125.936 156.261 126.976L161.685 136H158.205ZM177.29 136H174.41V119.68H177.29V136ZM210.309 133.576C212.165 133.576 213.093 132.888 213.093 131.512C213.093 130.952 212.949 130.512 212.661 130.192C212.389 129.872 211.877 129.592 211.125 129.352L209.157 128.704C206.805 127.936 205.629 126.392 205.629 124.072C205.629 122.728 206.045 121.624 206.877 120.76C207.725 119.88 209.045 119.44 210.837 119.44C211.589 119.44 212.333 119.528 213.069 119.704C213.805 119.864 214.589 120.128 215.421 120.496L214.533 122.968C213.765 122.664 213.109 122.448 212.565 122.32C212.037 122.176 211.493 122.104 210.933 122.104C210.197 122.104 209.613 122.24 209.181 122.512C208.765 122.768 208.557 123.24 208.557 123.928C208.557 124.44 208.701 124.864 208.989 125.2C209.293 125.52 209.789 125.792 210.477 126.016L212.445 126.664C213.629 127.064 214.517 127.648 215.109 128.416C215.717 129.168 216.021 130.168 216.021 131.416C216.021 132.856 215.565 134.024 214.653 134.92C213.741 135.8 212.309 136.24 210.357 136.24C209.589 136.24 208.789 136.152 207.957 135.976C207.141 135.784 206.245 135.464 205.269 135.016L206.157 132.544C207.053 132.928 207.813 133.2 208.437 133.36C209.077 133.504 209.701 133.576 210.309 133.576ZM238.715 133.24V136H229.259V119.68H238.475V122.44H232.139V126.352H237.755V129.112H232.139V133.24H238.715ZM255.35 119.68L259.91 130.84L264.446 119.68H267.59V136H264.83V129.76L265.19 124.048L261.134 134.08H258.566L254.606 124.024L254.966 129.76V136H252.206V119.68H255.35ZM285.065 136H282.185V119.68H285.065V136ZM299.648 136V119.68H302.288C303.552 121.328 304.752 123.072 305.888 124.912C307.024 126.736 308.056 128.616 308.984 130.552L308.768 125.68V119.68H311.528V136H308.888C307.864 133.984 306.8 131.96 305.696 129.928C304.608 127.88 303.448 125.952 302.216 124.144L302.408 129.76V136H299.648ZM334.798 136L333.79 132.808H328.198L327.19 136H324.334L329.782 119.68H332.326L337.798 136H334.798ZM329.758 127.816L329.014 130.168H332.95L332.206 127.816L331.006 123.688L329.758 127.816ZM353.484 130V136H350.604V119.68H356.052C357.7 119.68 358.964 120.104 359.844 120.952C360.74 121.784 361.188 122.904 361.188 124.312V125.344C361.188 126.272 360.988 127.088 360.588 127.792C360.188 128.496 359.612 129.032 358.86 129.4C360.172 131.64 361.292 133.84 362.22 136H358.932C358.132 134 357.18 132 356.076 130H353.484ZM356.052 122.32H353.484V127.36H356.052C356.756 127.36 357.292 127.184 357.66 126.832C358.044 126.464 358.236 125.968 358.236 125.344V124.312C358.236 123.704 358.044 123.224 357.66 122.872C357.292 122.504 356.756 122.32 356.052 122.32Z" fill="#3D3D3D"/>
<path d="M6.51372 86.8229L29.0779 86.8229L17.7958 106.364L6.51372 86.8229Z" fill="#3D3D3D"/>
<path d="M28.9219 86.8229L51.4861 86.8229L40.204 106.364L28.9219 86.8229Z" fill="#3D3D3D"/>
<path d="M17.7149 67.2819L40.2791 67.2819L28.997 86.823L17.7149 67.2819Z" fill="#3D3D3D"/>
</svg>
