<svg width="618" height="350" viewBox="0 0 618 350" fill="none" xmlns="http://www.w3.org/2000/svg">
<path d="M131.984 285H11.68V257.26C11.68 243.244 13.5293 231.564 17.228 222.22C20.9267 212.681 25.8907 204.895 32.12 198.86C38.3493 192.631 45.1627 187.667 52.56 183.968L72.416 174.04C80.008 170.147 86.14 166.059 90.812 161.776C95.6787 157.299 98.112 151.556 98.112 144.548V139.292C98.112 132.089 95.5813 126.444 90.52 122.356C85.6533 118.073 77.7693 115.932 66.868 115.932C60.2493 115.932 53.5333 116.905 46.72 118.852C40.1013 120.799 32.0227 123.524 22.484 127.028L11.68 96.952C22.5813 92.0853 32.5093 88.6787 41.464 86.732C50.6133 84.5907 59.4707 83.52 68.036 83.52C83.804 83.52 96.36 86.0507 105.704 91.112C115.243 96.1733 122.056 102.987 126.144 111.552C130.427 119.923 132.568 129.169 132.568 139.292V144.548C132.568 155.06 130.427 164.015 126.144 171.412C122.056 178.809 116.605 185.039 109.792 190.1C102.979 195.161 95.5813 199.639 87.6 203.532L67.744 213.46C60.5413 216.964 55.188 221.831 51.684 228.06C48.3747 234.289 46.5253 242.271 46.136 252.004H131.984V285ZM305.982 225.432C305.982 237.307 303.354 248.013 298.098 257.552C292.842 266.896 285.347 274.293 275.614 279.744C266.075 285.195 254.492 287.92 240.866 287.92C219.258 287.92 202.419 280.62 190.35 266.02C178.28 251.42 172.246 231.369 172.246 205.868V164.696C172.246 137.443 178.67 117.1 191.518 103.668C204.366 90.236 222.47 83.52 245.83 83.52C254.006 83.52 262.474 84.4933 271.234 86.44C280.188 88.3867 290.019 91.8907 300.726 96.952L288.17 127.028C279.41 122.94 271.72 120.117 265.102 118.56C258.483 116.808 252.351 115.932 246.706 115.932C234.442 115.932 224.514 119.631 216.922 127.028C209.524 134.231 205.826 146.787 205.826 164.696V175.208C212.639 169.173 219.647 164.696 226.85 161.776C234.247 158.856 241.547 157.396 248.75 157.396C260.43 157.396 270.552 160.024 279.118 165.28C287.683 170.536 294.302 177.836 298.974 187.18C303.646 196.524 305.982 207.328 305.982 219.592V225.432ZM205.826 205.868C205.826 222.609 208.94 235.068 215.17 243.244C221.399 251.42 230.159 255.508 241.45 255.508C251.183 255.508 258.678 252.783 263.934 247.332C269.19 241.687 271.818 234.387 271.818 225.432V219.592C271.818 210.443 269.384 203.045 264.518 197.4C259.651 191.755 252.643 188.932 243.494 188.932C229.672 188.932 217.116 194.188 205.826 204.7V205.868ZM437.48 280.036C432.419 282.372 426.579 284.221 419.96 285.584C413.341 287.141 406.625 287.92 399.812 287.92C388.521 287.92 379.469 285.584 372.656 280.912C365.843 276.24 360.879 269.719 357.764 261.348C354.844 252.977 353.384 243.439 353.384 232.732V166.156H329.44V136.956H353.384V98.412H386.964V136.956H433.1V166.156H386.964V232.732C386.964 241.687 388.619 247.916 391.928 251.42C395.432 254.729 400.396 256.384 406.82 256.384C409.935 256.384 413.244 256.092 416.748 255.508C420.447 254.729 424.535 253.464 429.012 251.712L437.48 280.036ZM542.734 165.28C537.868 165.28 532.32 166.448 526.09 168.784C519.861 171.12 512.464 175.695 503.898 182.508V285H470.318V68.92H503.898V155.352C512.853 147.76 521.224 142.309 529.01 139C536.797 135.691 544.778 134.036 552.954 134.036C567.165 134.036 577.969 138.611 585.366 147.76C592.764 156.715 596.462 169.368 596.462 185.72V285H562.882V189.808C562.882 173.456 556.166 165.28 542.734 165.28Z" fill="#EFEFEF" fill-opacity="0.75"/>
<path d="M18 253.8L25.6 272.4L33.16 253.8H38.4V281H33.8V270.6L34.4 261.08L27.64 277.8H23.36L16.76 261.04L17.36 270.6V281H12.76V253.8H18ZM67.5241 281H62.7241V253.8H67.5241V281ZM109.709 253.8L101.389 270.08V281H96.5887V270.16L88.1887 253.8H93.3087L99.1887 265.4L104.749 253.8H109.709ZM142.249 281L140.569 275.68H131.249L129.569 281H124.809L133.889 253.8H138.129L147.249 281H142.249ZM133.849 267.36L132.609 271.28H139.169L137.929 267.36L135.929 260.48L133.849 267.36ZM183.753 276.4V281H166.353V276.8L177.713 258.4H166.753V253.8H183.353V258L171.993 276.4H183.753ZM220.224 281L218.544 275.68H209.224L207.544 281H202.784L211.864 253.8H216.104L225.224 281H220.224ZM211.824 267.36L210.584 271.28H217.144L215.904 267.36L213.904 260.48L211.824 267.36ZM261.008 281L254.208 269.12C253.754 269.627 253.288 270.133 252.808 270.64C252.354 271.147 251.874 271.667 251.368 272.2V281H246.568V253.8H251.368V266.72C253.394 264.4 255.128 262.2 256.568 260.12C258.008 258.013 259.248 255.907 260.288 253.8H265.528C264.381 256.093 263.154 258.267 261.848 260.32C260.568 262.347 259.208 264.227 257.768 265.96L266.808 281H261.008ZM292.816 281H288.016V253.8H292.816V281ZM347.849 276.96C350.942 276.96 352.489 275.813 352.489 273.52C352.489 272.587 352.249 271.853 351.769 271.32C351.315 270.787 350.462 270.32 349.209 269.92L345.929 268.84C342.009 267.56 340.049 264.987 340.049 261.12C340.049 258.88 340.742 257.04 342.129 255.6C343.542 254.133 345.742 253.4 348.729 253.4C349.982 253.4 351.222 253.547 352.449 253.84C353.675 254.107 354.982 254.547 356.369 255.16L354.889 259.28C353.609 258.773 352.515 258.413 351.609 258.2C350.729 257.96 349.822 257.84 348.889 257.84C347.662 257.84 346.689 258.067 345.969 258.52C345.275 258.947 344.929 259.733 344.929 260.88C344.929 261.733 345.169 262.44 345.649 263C346.155 263.533 346.982 263.987 348.129 264.36L351.409 265.44C353.382 266.107 354.862 267.08 355.849 268.36C356.862 269.613 357.369 271.28 357.369 273.36C357.369 275.76 356.609 277.707 355.089 279.2C353.569 280.667 351.182 281.4 347.929 281.4C346.649 281.4 345.315 281.253 343.929 280.96C342.569 280.64 341.075 280.107 339.449 279.36L340.929 275.24C342.422 275.88 343.689 276.333 344.729 276.6C345.795 276.84 346.835 276.96 347.849 276.96ZM395.192 276.4V281H379.432V253.8H394.792V258.4H384.232V264.92H393.592V269.52H384.232V276.4H395.192ZM422.917 253.8L430.517 272.4L438.077 253.8H443.317V281H438.717V270.6L439.317 261.08L432.557 277.8H428.277L421.677 261.04L422.277 270.6V281H417.677V253.8H422.917ZM472.441 281H467.641V253.8H472.441V281ZM496.746 281V253.8H501.146C503.253 256.547 505.253 259.453 507.146 262.52C509.039 265.56 510.759 268.693 512.306 271.92L511.946 263.8V253.8H516.546V281H512.146C510.439 277.64 508.666 274.267 506.826 270.88C505.013 267.467 503.079 264.253 501.026 261.24L501.346 270.6V281H496.746ZM555.331 281L553.651 275.68H544.331L542.651 281H537.891L546.971 253.8H551.211L560.331 281H555.331ZM546.931 267.36L545.691 271.28H552.251L551.011 267.36L549.011 260.48L546.931 267.36ZM586.474 271V281H581.674V253.8H590.754C593.501 253.8 595.607 254.507 597.074 255.92C598.567 257.307 599.314 259.173 599.314 261.52V263.24C599.314 264.787 598.981 266.147 598.314 267.32C597.647 268.493 596.687 269.387 595.434 270C597.621 273.733 599.487 277.4 601.034 281H595.554C594.221 277.667 592.634 274.333 590.794 271H586.474ZM590.754 258.2H586.474V266.6H590.754C591.927 266.6 592.821 266.307 593.434 265.72C594.074 265.107 594.394 264.28 594.394 263.24V261.52C594.394 260.507 594.074 259.707 593.434 259.12C592.821 258.507 591.927 258.2 590.754 258.2Z" fill="#3D3D3D"/>
<path d="M222.462 155.289L300.271 155.289L261.366 222.674L222.462 155.289Z" fill="#3D3D3D"/>
<path d="M299.729 155.289L377.538 155.289L338.634 222.674L299.729 155.289Z" fill="#3D3D3D"/>
<path d="M261.095 87.9045L338.904 87.9045L300 155.289L261.095 87.9045Z" fill="#3D3D3D"/>
</svg>
